<?xml version="1.0" encoding="UTF-8"?>
<!-- Created with Inkscape (http://www.inkscape.org/) -->
<svg id="svg1020" width="269.89" height="206.67" version="1.1" viewBox="0 0 269.89 206.67" xml:space="preserve" xmlns="http://www.w3.org/2000/svg" xmlns:cc="http://creativecommons.org/ns#" xmlns:dc="http://purl.org/dc/elements/1.1/" xmlns:rdf="http://www.w3.org/1999/02/22-rdf-syntax-ns#" xmlns:xlink="http://www.w3.org/1999/xlink"><metadata id="metadata1026"><rdf:RDF><cc:Work rdf:about=""><dc:format>image/svg+xml</dc:format><dc:type rdf:resource="http://purl.org/dc/dcmitype/StillImage"/><dc:title/></cc:Work></rdf:RDF></metadata><defs id="defs1024"><clipPath id="clipPath1300-5"><path id="path1298-3" d="m1063.9 73.2h202.42v155h-202.42z"/></clipPath></defs><g id="g1028" transform="matrix(1.3333 0 0 -1.3333 -658.63 829.98)"><g id="g1294" transform="translate(-569.91 394.29)"><g id="g1296" clip-path="url(#clipPath1300-5)"><g id="g1302" transform="translate(1067.8 56.042)"><path id="path1304" d="m0 0h1.72c1.533 0 2.582 0.914 2.582 2.876 0 1.881-0.753 2.957-2.689 2.957h-1.613zm-3.871 8.683h6.774c3.925 0 5.269-2.876 5.269-5.753 0-3.979-2.446-5.78-6.102-5.78h-2.07v-7.661h-3.871z" fill="#fff"/></g><g id="g1306" transform="translate(1078 59.993)"><path id="path1308" d="m0 0h3.549v-1.935h0.053c0.753 1.397 1.801 2.311 3.333 2.311 0.216 0 0.457-0.026 0.673-0.053v-3.549c-0.377 0.027-0.78 0.054-1.156 0.054-1.291 0-2.742-0.672-2.742-2.608v-8.682h-3.71z" fill="#fff"/></g><g id="g1310" transform="translate(1094.1 54.402)"><path id="path1312" d="m0 0c-0.081 2.204-0.349 3.441-1.882 3.441-1.478 0-1.908-1.532-1.908-2.876v-0.565zm-3.79-2.204v-1.156c0-1.693 0.457-3.361 1.827-3.361 1.237 0 1.748 0.942 1.963 2.715h3.333c-0.135-3.36-1.747-5.241-5.242-5.241-5.376 0-5.591 4.139-5.591 7.742 0 3.87 0.752 7.473 5.752 7.473 4.328 0 5.297-2.904 5.297-7.339v-0.833z" fill="#fff"/></g><g id="g1314" transform="translate(1105.5 48.004)"><path id="path1316" d="m0 0c1.613 0 1.936 1.613 1.936 4.758s-0.323 4.758-1.936 4.758c-1.64 0-1.962-1.613-1.962-4.758s0.322-4.758 1.962-4.758m-5.672 11.989h3.548v-1.532h0.054c0.807 1.344 1.828 1.908 3.28 1.908 3.037 0 4.436-2.231 4.436-7.607s-1.399-7.608-4.436-7.608c-1.398 0-2.339 0.565-3.119 1.721h-0.053v-6.076h-3.71z" fill="#fff"/></g><g id="g1318" transform="translate(1120.3 52.762)"><path id="path1320" d="m0 0c-0.511-0.376-1.129-0.619-1.586-0.726-1.506-0.322-2.097-1.048-2.097-2.338 0-1.103 0.403-2.017 1.398-2.017 0.994 0 2.285 0.645 2.285 2.232zm-6.775 2.795v0.35c0 3.334 2.285 4.462 5.081 4.462 4.409 0 5.242-1.827 5.242-4.435v-7.608c0-1.344 0.08-1.962 0.457-2.795h-3.548c-0.242 0.456-0.35 1.021-0.457 1.505h-0.054c-0.86-1.505-1.909-1.882-3.683-1.882-2.581 0-3.495 2.204-3.495 4.139 0 2.716 1.102 3.818 3.656 4.518l2.097 0.564c1.103 0.295 1.479 0.726 1.479 1.694 0 1.101-0.484 1.774-1.72 1.774-1.13 0-1.721-0.753-1.721-1.882v-0.404z" fill="#fff"/></g><g id="g1322" transform="translate(1126.7 59.993)"><path id="path1324" d="m0 0h3.549v-1.935h0.053c0.753 1.397 1.801 2.311 3.333 2.311 0.216 0 0.457-0.026 0.673-0.053v-3.549c-0.377 0.027-0.78 0.054-1.156 0.054-1.291 0-2.742-0.672-2.742-2.608v-8.682h-3.71z" fill="#fff"/></g><g id="g1326" transform="translate(1142.9 54.402)"><path id="path1328" d="m0 0c-0.08 2.204-0.349 3.441-1.882 3.441-1.478 0-1.908-1.532-1.908-2.876v-0.565zm-3.79-2.204v-1.156c0-1.693 0.457-3.361 1.827-3.361 1.238 0 1.748 0.942 1.963 2.715h3.334c-0.135-3.36-1.748-5.241-5.242-5.241-5.377 0-5.592 4.139-5.592 7.742 0 3.87 0.753 7.473 5.752 7.473 4.329 0 5.297-2.904 5.297-7.339v-0.833z" fill="#fff"/></g><g id="g1330" transform="translate(1154 48.004)"><path id="path1332" d="m0 0c1.64 0 1.962 1.613 1.962 4.758s-0.322 4.758-1.962 4.758c-1.613 0-1.936-1.613-1.936-4.758s0.323-4.758 1.936-4.758m2.123-0.941h-0.053c-0.806-1.344-1.829-1.909-3.28-1.909-3.037 0-4.435 2.232-4.435 7.608s1.398 7.607 4.435 7.607c1.398 0 2.339-0.564 3.119-1.72h0.053v6.076h3.71v-19.194h-3.549z" fill="#fff"/></g><path id="path1334" d="m1166.1 45.531h-3.548v4.194h3.548z" fill="#fff"/><g id="g1336" transform="translate(1175 64.725)"><path id="path1338" d="m0 0h10.726v-3.173h-6.855v-4.515h6.452v-3.173h-6.452v-8.333h-3.871z" fill="#fff"/></g><g id="g1340" transform="translate(1192.8 47.681)"><path id="path1342" d="m0 0c1.505 0 1.989 1.479 1.989 5.081s-0.484 5.081-1.989 5.081c-1.828 0-1.989-2.124-1.989-5.081s0.161-5.081 1.989-5.081m0 12.688c4.462 0.081 5.699-2.58 5.699-7.607 0-4.946-1.452-7.608-5.699-7.608-4.462-0.08-5.699 2.581-5.699 7.608 0 4.947 1.452 7.607 5.699 7.607" fill="#fff"/></g><g id="g1344" transform="translate(1200.7 59.993)"><path id="path1346" d="m0 0h3.549v-1.935h0.054c0.752 1.397 1.801 2.311 3.333 2.311 0.215 0 0.458-0.026 0.672-0.053v-3.549c-0.376 0.027-0.779 0.054-1.156 0.054-1.29 0-2.742-0.672-2.742-2.608v-8.682h-3.71z" fill="#fff"/></g><g id="g1348" transform="translate(1216.8 45.531)"><path id="path1350" d="m0 0v19.194h3.871v-16.022h6.856v-3.172z" fill="#fff"/></g><path id="path1352" d="m1229.5 59.993h3.71v-14.462h-3.71zm0 4.947h3.71v-3.173h-3.71z" fill="#fff"/><g id="g1354" transform="translate(1236.9 57.466)"><path id="path1356" d="m0 0h-1.882v2.527h1.882v1.64c0 2.607 1.478 3.468 3.872 3.468 0.671 0 1.317-0.027 1.989-0.081v-2.634c-0.243 0.027-0.484 0.027-0.726 0.027-1.049 0-1.425-0.323-1.425-1.157v-1.263h2.151v-2.527h-2.151v-11.936h-3.71z" fill="#fff"/></g><g id="g1358" transform="translate(1251.3 54.402)"><path id="path1360" d="m0 0c-0.081 2.204-0.35 3.441-1.882 3.441-1.478 0-1.909-1.532-1.909-2.876v-0.565zm-3.791-2.204v-1.156c0-1.693 0.457-3.361 1.828-3.361 1.237 0 1.748 0.942 1.963 2.715h3.334c-0.135-3.36-1.748-5.241-5.242-5.241-5.377 0-5.592 4.139-5.592 7.742 0 3.87 0.752 7.473 5.752 7.473 4.329 0 5.296-2.904 5.296-7.339v-0.833z" fill="#fff"/></g><path id="path1362" d="m1260.9 45.531h-3.548v4.194h3.548z" fill="#fff"/><g id="g1364" transform="translate(1208.7 106.08)"><path id="path1366" d="m0 0h0.575c0.666 0 1.232 0.243 1.232 0.868 0 0.44-0.323 0.879-1.232 0.879-0.257 0-0.439-0.015-0.575-0.036zm0-2.792h-0.813v5.041c0.431 0.06 0.828 0.122 1.437 0.122 0.762 0 1.26-0.161 1.562-0.381 0.302-0.219 0.466-0.559 0.466-1.047 0-0.664-0.442-1.062-0.991-1.227v-0.035c0.443-0.085 0.746-0.482 0.852-1.227 0.114-0.786 0.235-1.087 0.318-1.246h-0.844c-0.122 0.159-0.243 0.621-0.341 1.287-0.122 0.641-0.448 0.884-1.085 0.884h-0.561zm0.842 6.454c-1.995 0-3.618-1.711-3.618-3.82 0-2.151 1.623-3.84 3.632-3.84 2.014-0.019 3.624 1.689 3.624 3.817 0 2.132-1.61 3.843-3.624 3.843zm0.014 0.701c2.479 0 4.444-2.011 4.444-4.521 0-2.556-1.965-4.542-4.458-4.542-2.475 0-4.482 1.986-4.482 4.542 0 2.51 2.007 4.521 4.482 4.521z" fill="#fff"/></g><g id="g1368" transform="translate(1116.4 159.61)"><path id="path1370" d="m0 0 1.653-5.112h5.379l-4.34-3.169 1.654-5.118-4.346 3.163-4.356-3.163 1.664 5.118-4.356 3.169h5.384z" fill="#fff"/></g><g id="g1372" transform="translate(1215.7 159.61)"><path id="path1374" d="m0 0 1.655-5.112h5.388l-4.35-3.169 1.658-5.118-4.351 3.163-4.36-3.163 1.659 5.118-4.352 3.169h5.395z" fill="#fff"/></g><g id="g1376" transform="translate(1128.1 150.93)"><path id="path1378" d="m0 0c-4.352-2.717-6.727-6.241-7.967-9.213-0.45-1.093-0.756-2.121-0.97-3.018l-0.051-0.227-0.191 0.141c-1.434 0.963-3.294 2.401-5.118 4.316-3.578 3.805-6.983 9.359-6.983 17.124 0 3.092 0.632 5.79 1.695 8.145l-2.571 3.438c-1.85-3.227-2.992-7.087-2.992-11.529v-0.079c0-9.224 4.259-15.916 8.45-20.151 4.186-4.286 8.356-6.397 8.486-6.466l3.349-1.61c-0.195 0.622-0.541 1.935-0.541 3.63 0 1.408 0.24 3.077 1.012 4.802 1.013 2.281 2.723 4.983 6.131 7.218 0.863 0.526 1.624 0.837 2.034 0.982-0.952 0.611-3.186 2.125-3.773 2.497" fill="#fff"/></g><g id="g1380" transform="translate(1220.9 139.87)"><path id="path1382" d="m0 0c4.172 4.234 8.442 10.927 8.442 20.15v0.079c0 4.443-1.137 8.303-2.992 11.53l-2.562-3.438c1.059-2.341 1.68-5.053 1.689-8.146-9e-3 -7.764-3.414-13.318-6.997-17.123-1.811-1.915-3.669-3.353-5.102-4.316l-0.198-0.141-0.06 0.227c-0.204 0.897-0.505 1.925-0.956 3.018-1.238 2.977-3.629 6.495-7.975 9.213-0.582-0.372-2.812-1.886-3.769-2.497 0.421-0.154 1.178-0.461 2.03-0.982 3.412-2.235 5.104-4.952 6.14-7.213 0.742-1.641 0.978-3.284 0.978-4.707 0-1.725-0.345-3.108-0.528-3.734l3.369 1.614c0.121 0.069 4.302 2.18 8.491 6.466" fill="#fff"/></g><g id="g1384" transform="translate(1188.9 176.8)"><path id="path1386" d="m0 0c0.732 0.4 1.835 0.951 3.258 1.503 2.808 1.098 6.844 2.21 11.656 2.21h0.054c4.027 0 9.073-1.448 13.194-4.33h5.958c-0.799 0.827-1.643 1.594-2.549 2.296-5.098 3.985-11.349 5.885-16.649 5.894-6.901-9e-3 -12.315-1.99-15.368-3.463l-0.196-0.086-0.039 0.21c-1.4 7.71-4.773 14.663-8.677 21.756-4.337 7.839-9.338 15.885-13.349 25.414-4.01-9.529-9.007-17.575-13.343-25.414-3.906-7.093-7.279-14.046-8.687-21.756l-0.036-0.21-0.19 0.086c-3.068 1.473-8.466 3.454-15.364 3.463-5.308-9e-3 -11.553-1.909-16.662-5.894-0.898-0.702-1.749-1.469-2.541-2.296h5.945c4.145 2.882 9.173 4.33 13.208 4.33h0.05c4.808 0 8.852-1.112 11.66-2.21 1.414-0.552 2.516-1.103 3.258-1.503 0.371-0.201 0.636-0.372 0.822-0.472 0.104-0.06 0.161-0.1 0.195-0.124 0.021-0.021 0.027-0.021 0.027-0.021l0.033-0.016h6e-3l2.641-1.818 0.35 3.217c0.878 8.112 4.318 15.449 8.674 23.354 3.046 5.539 6.55 11.324 9.809 17.795l0.145 0.28 0.145-0.28c3.262-6.471 6.762-12.256 9.821-17.795 4.361-7.905 7.788-15.242 8.661-23.354l0.356-3.217 2.627 1.809 0.02 9e-3 0.02 0.016s0.02 0 0.035 0.015c0.04 0.03 0.096 0.07 0.195 0.131 0.175 0.099 0.457 0.27 0.827 0.471" fill="#fff"/></g><g id="g1388" transform="translate(1127.1 121.66)"><path id="path1390" d="m0 0c0-0.442 0.01-0.819 0.01-1.099 0-5.821 2.281-11.092 5.8-14.918 3.498-3.824 8.296-6.266 13.405-6.276h0.019c2.321 0 4.667 0.522 6.947 1.625l0.135 0.075 0.066-0.151c1.764-3.724 5.919-11.423 12.681-17.143 6.762 5.731 10.914 13.419 12.678 17.143l0.07 0.151 0.149-0.075c2.252-1.103 4.617-1.625 6.939-1.625h0.019c5.099 0.01 9.891 2.452 13.405 6.276 3.519 3.826 5.789 9.098 5.8 14.918 0 0.28 3e-3 0.657 3e-3 1.099 0 2.093-0.21 5.889-2.7 10.475v-0.101c-0.015-5.522-4.241-9.251-5.526-10.01-1.317-0.76-2.594-1.042-3.849-1.052h-0.02c-1.829 0.01-3.618 0.656-4.967 1.358-0.962 0.498-1.685 1.024-2.045 1.288l-3.279-2.324c0.522-0.422 1.97-1.549 3.369-2.302 1.73-0.916 4.137-1.869 6.942-1.885h0.021c1.843 0 3.849 0.445 5.779 1.584 0.727 0.426 1.439 0.942 2.13 1.55l0.275 0.245-0.014-0.371c-0.106-4.617-1.975-8.812-4.767-11.865-2.888-3.137-6.713-5.014-10.546-5.014l-5e-3 -3e-3h-6e-3c-2.316 3e-3 -4.646 0.661-6.933 2.2l-2.033 1.588-0.873-2.601h-0.015c-0.026-0.075-0.076-0.201-0.136-0.345-0.139-0.311-0.335-0.768-0.607-1.343-0.537-1.153-1.347-2.769-2.43-4.608-1.635-2.761-3.871-6.009-6.672-8.918-0.021-0.014-0.025-0.025-0.039-0.028l-0.117-0.127-0.109 0.127c-0.017 0-0.02 0.014-0.041 0.028-2.802 2.909-5.046 6.157-6.672 8.918-1.083 1.839-1.905 3.455-2.43 4.608-0.272 0.575-0.477 1.032-0.607 1.343-0.066 0.144-0.12 0.27-0.151 0.345l-0.876 2.601-2.047-1.598c-2.28-1.529-4.606-2.187-6.915-2.19-6e-3 0-0.022 3e-3 -0.022 0-3.824 3e-3 -7.654 1.88-10.541 5.017-2.787 3.053-4.667 7.248-4.777 11.865l-5e-3 0.371 0.281-0.246c0.685-0.607 1.388-1.123 2.12-1.549 1.94-1.139 3.944-1.584 5.774-1.584h0.031c2.812 0.016 5.218 0.969 6.947 1.885 1.398 0.753 2.847 1.88 3.363 2.302l-3.288 2.324c-0.356-0.264-1.078-0.791-2.03-1.288-1.358-0.702-3.148-1.348-4.968-1.358 0 0-5e-3 0.01-0.024 0-1.253 0.01-2.532 0.292-3.856 1.052-1.282 0.759-5.508 4.488-5.518 10.01v0.101c-2.482-4.586-2.702-8.382-2.702-10.475" fill="#fff"/></g><g id="g1392" transform="translate(1163.5 177.95)"><path id="path1394" d="m0 0h5.398l-2.737 38.256z" fill="#fff"/></g><g id="g1396" transform="translate(1153.4 143.89)"><path id="path1398" d="m0 0c0.295-2.537 0.847-5.3 1.825-7.975v7.975z" fill="#fff"/></g><g id="g1400" transform="translate(1157.3 143.89)"><path id="path1402" d="m0 0v-12.306c0.571-0.958 1.209-1.88 1.945-2.746v15.052z" fill="#fff"/></g><g id="g1404" transform="translate(1161.2 143.89)"><path id="path1406" d="m0 0v-17.139c0.597-0.536 1.244-1.037 1.931-1.503v18.642z" fill="#fff"/></g><g id="g1408" transform="translate(1165.2 143.89)"><path id="path1410" d="m0 0v-19.83c0.296-0.15 0.611-0.312 0.932-0.447 0.341 0.15 0.677 0.311 0.997 0.482v19.795z" fill="#fff"/></g><g id="g1412" transform="translate(1169.2 143.89)"><path id="path1414" d="m0 0v-18.598c0.687 0.473 1.331 0.972 1.931 1.509v17.089z" fill="#fff"/></g><g id="g1416" transform="translate(1173.1 143.89)"><path id="path1418" d="m0 0v-14.983c0.722 0.872 1.368 1.799 1.933 2.777v12.206z" fill="#fff"/></g><g id="g1420" transform="translate(1178.9 143.89)"><path id="path1422" d="m0 0h-1.789v-7.835c0.941 2.637 1.493 5.348 1.789 7.835" fill="#fff"/></g><g id="g1424" transform="translate(1155.6 117.77)"><path id="path1426" d="m0 0c0.542-0.16 1.779-0.32 1.779-0.32l3.118 7.434c-2.324 1.914-4.1 4.215-5.423 6.676-0.667-1.534-4.627-10.531-4.679-10.776-0.05-0.277 0.108-0.697 0.488-0.913 0.382-0.216 1.179-0.698 1.179-0.698s-1.024-1.935-1.987-2.365c-0.965-0.436-2.736-1.127-4.35-1.017-1.609 0.104-2.647 0.141-2.897-1.188-0.437-2.195 1.715-3.328 1.715-3.328s-0.858 2.414 0.7 2.414h9.826c0.587 0 1.232-0.746 0.641-2.093 1.294 0.545 1.784 1.609 1.504 2.956-0.271 1.343-1.769 1.129-2.466 1.179-0.702 0.06-1.925 0.431-1.925 0.431l1.333 2.156s0.913-0.382 1.444-0.548" fill="#fff"/></g><g id="g1428" transform="translate(1173.3 163.9)"><path id="path1430" d="m0 0s0.488-2.53 1.495-2.53c1.023 0 5.773 4.33 7.524 6.079 1.744 1.745 7.252 6.763 13.801 6.763 6.556 0 29.97-0.056 29.97-0.056s-0.813-2.471-2.808-2.847c-1.979-0.371-14.01-1.609-14.01-1.609h13.8s-1.388-2.526-3.438-2.901c-2.03-0.372-11.004-1.284-11.004-1.284h10.634s-1.019-2.638-3.59-3.113c-2.586-0.486-11.014-1.188-11.014-1.188h10.145s-1.448-2.471-3.703-2.953c-2.25-0.481-11.163-1.398-11.163-1.398h9.495s-1.339-2.302-3.816-2.738c-2.461-0.43-9.981-1.448-9.981-1.448h8.107s-1.981-2.637-4.777-3.118c-2.792-0.481-8.266-1.287-8.266-1.287h5.795s-2.531-2.141-4.501-2.733c-1.99-0.596-7.209-1.509-7.209-1.509h4.245l-7.734-4.607v-0.756l8.868-8.653s-1.344-2.36-3.715-4.346c-2.361-1.983-3.86-2.736-3.86-2.736l-4.557 10.387c0.225 0.505 0.442 1.007 0.631 1.522 2.03 5.284 2.453 10.808 2.453 14.608 0 2.913-0.251 4.826-0.251 4.863l-0.095 0.666-14.403 3.313-0.205 0.055-0.22-0.055-14.396-3.313-0.091-0.666c-9e-3 -0.037-0.266-1.971-0.266-4.923 0-3.815 0.423-9.323 2.452-14.598 0.205-0.531 0.436-1.057 0.662-1.582l-4.507-10.277s-1.494 0.753-3.864 2.736c-2.366 1.986-3.706 4.346-3.706 4.346l8.859 8.653v0.756l-7.729 4.607h4.24s-5.209 0.913-7.193 1.509c-1.995 0.592-4.512 2.733-4.512 2.733h5.799s-5.479 0.806-8.27 1.287c-2.792 0.481-4.777 3.118-4.777 3.118h8.111s-7.515 1.018-10 1.448c-2.467 0.436-3.805 2.738-3.805 2.738h9.509s-8.912 0.917-11.168 1.398c-2.261 0.482-3.703 2.953-3.703 2.953h10.139s-8.426 0.702-11.009 1.188c-2.576 0.475-3.598 3.113-3.598 3.113h10.627s-8.952 0.912-11.002 1.284c-2.036 0.375-3.445 2.901-3.445 2.901h13.811s-12.026 1.238-14.011 1.609c-1.99 0.376-2.791 2.847-2.791 2.847s23.413 0.056 29.949 0.056c6.562 0 12.066-5.018 13.806-6.763 1.749-1.749 6.504-6.079 7.524-6.079 1.017 0 2.43 1.864 2.43 1.864 0.797 1.579 1.69 4.195 1.69 4.195s-1.207 0.452-1.976 0.933c-0.765 0.486-1.168 1.287-1.168 1.287h2.982c0.767 0 3.085-0.56 2.868-1.733-0.194-1.173-1.94-6.671-1.94-6.671s1.825-0.368 3.644-0.368c1.82 0 5.048 0.368 5.048 0.368s-1.488 9.583-1.65 10.67c-0.164 1.104-1.824 1.459-3.227 1.459-1.423 0-2.552-0.321-2.833-0.401-0.291-0.08-0.37-0.371 0.195-0.692 0.569-0.329 1.215-0.119 1.215-0.119s-0.042-0.693-0.567-1.088c-0.526-0.406-1.78-0.487-2.621-0.487-0.863 0-2.386 0.081-2.923-0.045-0.521-0.121-0.802-0.401-0.928-0.636-0.119-0.257 0.372-1.258 0.372-1.258s-0.853-0.371-1.419 1.042c-0.575 1.418-0.17 2.698 0.451 3.118 1.415 0.973 4.447 0.365 4.447 0.365s0.686 1.775 2.581 2.542c1.9 0.768 3.799 0.336 5.534 0.126 1.743-0.201 3.389-0.126 3.389-0.126l-1.439-2.461s1.177-7.428 1.557-9.354" fill="#fff"/></g><g id="g1432" transform="translate(1170.5 123.95)"><path id="path1434" d="m0 0c-1.198-0.841-2.522-1.583-3.992-2.205l-0.37-0.155-0.377 0.155c-1.443 0.601-2.735 1.333-3.903 2.156l-2.075-5.374s2.045-0.787 6.315-0.801h0.186c4.28 0.014 6.306 0.801 6.306 0.801z" fill="#fff"/></g><g id="g1436" transform="translate(1186.6 115.79)"><path id="path1438" d="m0 0c-1.607-0.11-3.387 0.58-4.355 1.017-0.967 0.43-1.983 2.365-1.983 2.365s0.807 0.481 1.182 0.697c0.381 0.216 0.541 0.637 0.486 0.913-0.06 0.245-4.211 9.703-4.731 10.882-1.319-2.466-3.074-4.791-5.396-6.712l3.144-7.504s1.233 0.161 1.765 0.321c0.541 0.165 1.458 0.548 1.458 0.548l1.339-2.157s-1.234-0.37-1.94-0.431c-0.691-0.049-2.197 0.164-2.461-1.178-0.266-1.348 0.21-2.411 1.509-2.957-0.592 1.347 0.046 2.094 0.636 2.094h9.83c1.559 0 0.687-2.415 0.687-2.415s2.155 1.134 1.729 3.328c-0.257 1.329-1.294 1.292-2.899 1.189" fill="#fff"/></g><g id="g1440" transform="translate(1177 151.31)"><path id="path1442" d="m0 0 0.38-1.183-1.011 0.731-1.004-0.731 0.385 1.183-1.008 0.731h1.244l0.383 1.184 0.385-1.184h1.248zm0.38-4.647-1.011 0.733-1.004-0.733 0.385 1.183-1.008 0.737h1.244l0.383 1.183 0.385-1.183h1.248l-1.002-0.737zm-3.418 4.306-1.014 0.737-1-0.737 0.376 1.182-1.009 0.743h1.248l0.385 1.178 0.387-1.178h1.243l-1.011-0.743zm-0.652-4.306-1.002 0.733-1.012-0.733 0.381 1.183-0.994 0.737h1.234l0.391 1.183 0.385-1.183h1.234l-0.998-0.737zm-3.784 5.885-1.003-0.727 0.376 1.178-1.003 0.737h1.249l0.381 1.183 0.381-1.183h1.242l-0.996-0.737 0.38-1.178zm-0.276-5.885-1.017 0.733-1.008-0.733 0.391 1.183-1.013 0.737h1.254l0.376 1.183 0.391-1.183h1.242l-1.007-0.737zm-4.109 6.005 0.374 1.183-1.001 0.728h1.242l0.386 1.178 0.392-1.178h1.243l-1.017-0.728 0.389-1.183-1.007 0.738zm-0.126-6.005-1.008 0.733-1.003-0.733 0.382 1.183-1.004 0.737h1.239l0.386 1.183 0.381-1.183h1.253l-1.018-0.737zm-3.919 7.073h1.236l0.387 1.183 0.386-1.183h1.243l-1.012-0.737 0.385-1.178-1.002 0.727-1.008-0.727 0.387 1.178zm-0.151-7.073-1.004 0.733-1.001-0.733 0.379 1.183-1.006 0.737h1.242l0.386 1.183 0.383-1.183h1.242l-1.003-0.737zm-3.284 6.231h1.242l0.392 1.178 0.377-1.178h1.257l-1.007-0.743 0.38-1.182-1.007 0.737-1.008-0.737 0.377 1.182zm-1.168-1.584 0.382-1.183-1.004 0.731-1.002-0.731 0.387 1.183-1.008 0.731h1.237l0.386 1.184 0.393-1.184h1.242zm0.382-4.647-1.004 0.733-1.002-0.733 0.387 1.183-1.008 0.737h1.237l0.386 1.183 0.393-1.183h1.242l-1.013-0.737zm22.114 6.743-12.847 2.957-12.856-2.957c-0.017-0.175-0.026-0.371-0.057-0.607-0.059-0.817-0.125-1.991-0.125-3.403-4e-3 -1.042 0.036-2.231 0.141-3.494h25.794c0.102 1.293 0.132 2.501 0.132 3.553 0 1.79-0.107 3.183-0.182 3.951" fill="#fff"/></g><g id="g1444" transform="translate(1262.2 62.548)"><path id="path1446" d="m0 0h0.448c0.509 0 0.949 0.187 0.949 0.668 0 0.338-0.252 0.678-0.949 0.678-0.199 0-0.338-0.013-0.448-0.031zm0-2.157h-0.622v3.893c0.327 0.044 0.633 0.088 1.1 0.088 0.589 0 0.98-0.116 1.21-0.288 0.231-0.17 0.354-0.431 0.354-0.809 0-0.51-0.339-0.816-0.758-0.942v-0.027c0.34-0.072 0.575-0.379 0.651-0.951 0.091-0.603 0.184-0.836 0.247-0.964h-0.648c-0.097 0.128-0.185 0.478-0.264 0.992-0.091 0.497-0.34 0.679-0.838 0.679h-0.432zm0.652 4.978c-1.538 0-2.789-1.318-2.789-2.946 0-1.656 1.251-2.958 2.803-2.958 1.552-0.015 2.788 1.302 2.788 2.946 0 1.64-1.236 2.958-2.788 2.958zm0.014 0.541c1.902 0 3.422-1.549 3.422-3.487 0-1.97-1.52-3.5-3.436-3.5-1.907 0-3.459 1.53-3.459 3.5 0 1.938 1.552 3.487 3.459 3.487z" fill="#fff"/></g></g></g></g></svg>
