<?xml version="1.0" encoding="UTF-8" standalone="no"?>
<svg
   xmlns:dc="http://purl.org/dc/elements/1.1/"
   xmlns:cc="http://creativecommons.org/ns#"
   xmlns:rdf="http://www.w3.org/1999/02/22-rdf-syntax-ns#"
   xmlns:svg="http://www.w3.org/2000/svg"
   xmlns="http://www.w3.org/2000/svg"
   xmlns:sodipodi="http://sodipodi.sourceforge.net/DTD/sodipodi-0.dtd"
   xmlns:inkscape="http://www.inkscape.org/namespaces/inkscape"
   width="2589.6565"
   height="2687.7556"
   viewBox="0 0 276.10296 286.60076"
   version="1.1"
   id="svg829"
   sodipodi:docname="cub-scouts.svg"
   inkscape:version="0.92.4 (5da689c313, 2019-01-14)">
  <metadata
     id="metadata835">
    <rdf:RDF>
      <cc:Work
         rdf:about="">
        <dc:format>image/svg+xml</dc:format>
        <dc:type
           rdf:resource="http://purl.org/dc/dcmitype/StillImage" />
        <dc:title></dc:title>
      </cc:Work>
    </rdf:RDF>
  </metadata>
  <defs
     id="defs833">
    <filter
       inkscape:collect="always"
       style="color-interpolation-filters:sRGB"
       id="filter1016"
       x="-0.018001208"
       width="1.0360024"
       y="-0.017998792"
       height="1.0359976">
      <feGaussianBlur
         inkscape:collect="always"
         stdDeviation="1.9992143"
         id="feGaussianBlur1018" />
    </filter>
  </defs>
  <sodipodi:namedview
     pagecolor="#ffffff"
     bordercolor="#666666"
     borderopacity="1"
     objecttolerance="10"
     gridtolerance="10"
     guidetolerance="10"
     inkscape:pageopacity="0"
     inkscape:pageshadow="2"
     inkscape:window-width="1920"
     inkscape:window-height="1017"
     id="namedview831"
     showgrid="false"
     fit-margin-top="0"
     fit-margin-left="0"
     fit-margin-right="0"
     fit-margin-bottom="0"
     inkscape:zoom="0.16737521"
     inkscape:cx="2844.7595"
     inkscape:cy="582.38269"
     inkscape:window-x="-8"
     inkscape:window-y="-8"
     inkscape:window-maximized="1"
     inkscape:current-layer="svg829" />
  <path
     d="M 4.7795036,148.49463 138.05152,15.222834 l 133.272,133.271796 -133.272,133.308 z"
     id="path815-96-6"
     inkscape:connector-curvature="0"
     style="opacity:0.2;fill:#000000;fill-opacity:1;stroke:#000000;stroke-width:6.4482975;stroke-miterlimit:4;stroke-dasharray:none;stroke-opacity:1;filter:url(#filter1016)" />
  <path
     d="M 4.779504,137.83163 138.05151,4.5596348 l 133.272,133.2719952 -133.272,133.308 z"
     id="path815-96"
     inkscape:connector-curvature="0"
     style="fill:#2d509f;stroke:#000000;stroke-width:6.4482975;stroke-miterlimit:4;stroke-dasharray:none;stroke-opacity:1" />
  <path
     d="M 4.779504,137.83163 138.05151,4.5596348 l 133.272,133.2719952 -133.272,133.308 z"
     id="path815"
     inkscape:connector-curvature="0"
     style="fill:#2d509f" />
  <path
     d="m 138.05151,17.159636 120.708,120.671994 -120.708,120.707 -120.708005,-120.707 z"
     id="path817"
     inkscape:connector-curvature="0"
     style="fill:#fadf3c" />
  <path
     d="m 158.78651,146.47163 c 0,0 -3.275,-3.132 -4.752,0.108 -1.475,3.275 -2.987,7.056 -3.527,8.568 -0.54,1.475 -2.305,4.463 -4.607,4.463 0,0 -1.765,3.528 -7.885,3.528 -6.048,0 -9.18,-1.765 -11.34,-4.067 0,0 -5.004,-2.053 -5.688,-9.613 0,0 -4.212,-1.223 -5.292,-2.592 -1.08,-1.367 -2.448,-2.303 -3.528,-2.303 -1.08,0 -0.936,-2.701 -2.988,-2.053 -2.016,0.684 -2.16,0.287 -2.16,-0.648 0,-0.972 0,-1.512 -1.765,-2.195 -1.764,-0.684 -3.24,-2.377 -4.60701,-1.873 -1.367995,0.541 -1.619995,-0.287 -1.763995,-1.332 -0.144,-1.08 -1.224,-2.591 -2.448,-3.383 -1.225,-0.828 -2.304,-1.368 -3.24,-0.972 -0.972,0.432 -1.368,-0.252 -1.368,-1.764 0,-1.476 -1.476,-1.188 -1.908,-3.24 -0.396,-2.016 -1.872,-2.592 -2.016,-4.896 -0.144,-2.304 -0.684,-3.384 -1.908,-3.636 -1.224,-0.288 -0.684,-1.764 0.288,-3.528 0.936,-1.764 2.556,-5.436 2.556,-7.344 0,-1.872 0.288,-2.7 1.62,-2.7 1.368,0 2.196,-1.764 2.196,-3.77999 0,-2.052005 0,-3.420005 1.872,-2.988005 0,0 1.368,-4.608 3.276,-6.912 1.908,-2.304 2.303995,-2.448 1.62,-4.356 -0.684,-1.908 -2.304,-10.836 -0.54,-16.416 1.763995,-5.544 2.015995,-2.988 4.068005,-0.54 2.016,2.448 4.896,6.12 4.896,7.884 0,0 5.688,-1.368 4.068,5.004 0,0 6.48,4.752 7.704,1.764 1.224,-2.988 1.62,-3.672 -2.988,-8.136 -4.608,-4.464 -10.008,-8.676 -11.52,-9.216 -1.476,-0.54 -0.972,-2.196 3.852,-0.251999 4.824,1.908 8.532,6.84 10.872,8.171999 2.376,1.368 4.752,2.52 7.776,1.368 3.06,-1.188 5.58,-2.7 8.46,-0.108 0,0 4.5,-1.764 7.631,-0.936 3.133,0.864 5.328,2.196 9.9,-0.324 4.536,-2.52 14.76,-8.46 18.396,-8.784 3.636,-0.324 -3.637,4.068 -5.076,4.824 -1.439,0.756 -10.98,6.336 -12.744,7.92 0,0 0.072,3.384 5.328,5.76 0,0 0.324,-1.26 0.252,-2.016 -0.072,-0.792 0.432,-2.196 2.268,-1.8 1.873,0.433 1.944,-2.016 1.801,-2.844 -0.18,-0.864 0.504,-1.944 1.764,-1.944 1.26,0 2.628,-1.44 4.535,-3.132 1.945,-1.692 3.24,-3.563 3.24,-3.563 0,0 0.828,-1.26 0.648,2.448 -0.145,3.708 -3.96,13.032 -5.292,15.552 -1.368,2.52 2.269,-0.252 3.097,-2.448 0.863,-2.196 3.096,-9.216 3.563,-10.98 0.827,-3.204 1.692,0.576 0.827,2.628 -0.827,2.016 -1.764,6.48 -1.26,7.992 0.504,1.548 0,4.248 0.252,5.328 0.252,1.116 -1.188,1.44 -1.584,2.196 -0.432,0.756 0.252,1.116 1.441,2.304 1.15,1.152 2.268,0.9 2.268,2.7 0,1.764 0.252,1.944 1.943,2.52 1.691,0.576005 1.691,1.008005 1.584,2.195995 -0.072,1.188 0.107,2.268 1.008,4.068 0.937,1.764 2.557,4.644 2.305,5.472 -0.252,0.828 -1.62,2.88 -0.107,3.384 1.547,0.504 1.871,2.376 1.439,4.032 -0.396,1.692 0.107,2.448 0.863,2.736 0.756,0.252 0,3.276 -1.115,3.708 -1.08,0.396 -1.944,1.26 -2.448,2.771 -0.505,1.512 -1.765,4.572 -3.097,4.393 -1.367,-0.181 -2.375,0.684 -2.375,1.116 0,0.396 -1.117,0.9 -1.944,0.756 -0.864,-0.18 -1.872,0.396 -2.448,1.332 -0.611,0.936 0.432,3.6 -1.115,2.592 -1.513,-1.008 -2.701,-0.252 -2.844,0.756 -0.182,1.008 -0.109,1.873 -2.305,1.873 -2.196,0 -3.456,1.188 -4.896,1.584 -1.439,0.43 -2.699,0.755 -2.988,3.814 z m 20.34,51.911 4.61,-5.722 h 4.355 l 4.5,-4.538 h -5.221 l 11.916,-14.939 h 13.752 l -4.248,4.104 h -8.172 l -3.744,4.789 h 6.949 l -16.957,16.306 z m -6.947,0 14.04,-21.383 h -3.312 l 2.413,-3.816 h 11.916 l -2.809,3.816 h -2.988 l -16.092,21.383 z m -12.456,0 10.8,-25.199 h 4.931 l -9,18.756 h 1.765 l 10.836,-18.756 h 4.319 l -15.73,25.199 z m -10.728,0 5.039,-25.199 h 12.853 l -9.323,25.199 z m -10.836,0 -0.072,-25.199 h 12.889 l -1.656,9.107 h -3.889 l 0.576,-4.355 h -3.816 l -0.215,15.264 h 1.978 l 0.362,-2.664 h 3.491 l -1.403,7.847 z m -10.62,0 -1.008,-4.355 h 5.724 l -0.504,-5.688 h -6.552 l -3.528,-15.156 h 12.996 l 0.216,4.788 h -7.416 l 0.972,5.256 h 6.66 l 0.721,15.155 z m -14.256,0 -13.752006,-25.199 h 12.852006 l 3.888,10.549 -0.792,1.619 1.692,0.828 4.536,12.203 z m -10.764,0 -20.844006,-25.199 h 5.544 l 13.715996,18.145 h 2.23201 l -11.592005,-18.145 h 5.003999 l 14.256006,25.199 z m -10.764006,0 -25.596,-25.199 h 12.672 l 8.568,10.044 h -4.392 l -3.528,-3.924 h -2.88 l 15.876,15.624 h 2.124 l -3.996,-4.068 h 3.312 l 6.443996,7.523 z m 48.384006,43.093 c 0,0 -0.647,-3.312 -4.752,-3.312 -4.104,0 -5.976,-0.648 -5.976,-3.457 0,-2.844 2.376,-3.635 3.852,-1.332 0,0 0.396,-3.203 2.628,-3.815 0,0 -0.827,-4.429 -3.78,-4.429 -2.988,0 -3.816,2.629 -3.312,4.789 0,0 -5.76,-1.512 -5.76,-7.92 0,-6.444 6.912,-6.948 10.728,-2.988 0,0 0.648,-8.424 6.372,-13.68 5.796,5.256 6.444,13.68 6.444,13.68 3.816,-3.96 10.729,-3.456 10.729,2.988 0,6.408 -5.761,7.92 -5.761,7.92 0.468,-2.16 -0.323,-4.789 -3.312,-4.789 -2.989,0 -3.781,4.429 -3.781,4.429 2.232,0.612 2.629,3.815 2.629,3.815 1.477,-2.303 3.852,-1.512 3.852,1.332 0,2.809 -1.871,3.457 -6.012,3.457 -4.141,0 -4.788,3.312 -4.788,3.312 z"
     id="path819"
     inkscape:connector-curvature="0"
     style="fill:#2d509f" />
  <path
     d="m 154.61151,192.44363 h 1.404 l 4.355,-14.039 h -2.554 z m -45.036,-9.145 -2.34,-4.752 h 2.268 l 2.016,4.752 z m 5.328,10.837 -1.872,-3.815 h 1.548 l 1.62,3.815 z m 31.356,-65.556 c 0,0 -0.288,-1.62 0.145,-3.24 0.432,-1.62 0.18,-3.744 0.18,-3.744 0,0 6.408,-2.16 8.711,-3.708 2.341,-1.548 3.312,-0.648 3.133,1.008 -0.145,1.692 0.973,1.692 -0.469,3.348 -1.475,1.692 -1.907,3.564 -4.391,3.42 -2.484,-0.18 -6.084,-0.756 -6.084,1.08 0,1.836 -0.252,3.384 -1.225,1.836 z"
     id="path821"
     inkscape:connector-curvature="0"
     style="fill:#fadf3c" />
  <path
     d="m 132.83151,81.707636 c 0,0 -0.288,-2.16 -1.548,-0.792001 -1.26,1.368 -2.808,3.456001 -3.168,4.356 -0.324,0.936001 -0.72,1.62 -2.34,2.052001 -1.62,0.468 -2.736,1.548 -4.248,1.727999 -1.476,0.180001 -3.996,0.792 -1.44,-1.26 2.592,-2.052 5.688,-3.564 6.876,-5.04 1.225,-1.476 1.116,-1.26 1.116,-2.736 0,-1.512 -0.576,-2.232 1.08,-2.484 1.656,-0.216 2.916,-1.188 4.573,-0.108 1.655,1.08 2.051,0.792 2.016,3.312 -0.072,2.52 0,4.536 1.043,3.348 0.973,-1.224 0.686,-0.756 1.945,0.324 1.259,1.08 2.483,1.512 4.031,2.196 1.549,0.684 1.691,2.448 -0.072,2.448 -1.763,0 -1.439,-0.18 -1.367,1.728 0.035,1.872 -1.08,2.592 -0.289,3.888 0.793,1.332 1.945,2.016 1.836,3.312 -0.107,1.332 0.181,2.195005 0.793,2.987005 0.648,0.79199 1.619,1.76499 1.548,3.02399 -0.071,1.296 0.216,1.836 1.476,2.988 1.26,1.151 0.973,0.972 4.248,1.08 3.276,0.144 4.248,0.432 4.824,1.26 0.576,0.864 1.584,1.979 2.809,2.196 1.188,0.216 2.916,-0.288 3.383,0.792 0.433,1.08 1.836,0.072 3.025,0.072 1.188,0 3.491,-2.124 5.146,-0.576 1.656,1.548 2.809,1.152 3.061,1.548 0.217,0.396 1.764,0.504 2.809,0.504 1.008,0 5.436,-1.944 4.68,-0.108 -0.756,1.836 -0.504,1.476 1.044,2.628 1.548,1.152 1.655,1.548 1.655,3.492 0,1.944 0,6.876 -1.223,6.264 -1.189,-0.647 -2.736,-0.647 -2.736,-0.647 0,0 -1.188,0.864 0.107,1.368 1.332,0.54 0.252,1.548 -1.152,1.8 -1.367,0.216 -3.239,-0.54 -2.951,1.152 0.287,1.656 -1.404,0.828 -2.484,0.828 -1.08,0 -2.916,-0.432 -4.572,1.692 -1.656,2.088 -5.004,4.104 -8.027,4.104 -3.023,0 -7.271,0.396 -8.532,0.9 -1.261,0.504 -2.521,0.504 -2.017,-1.98 0.541,-2.52 -0.791,-2.808 2.197,-4.536 2.987,-1.692 6.695,-3.78 8.172,-5.256 1.512,-1.512 1.691,-2.772 1.691,-4.824 0,-2.052 0.721,-3.78 3.023,-3.492 2.305,0.288 2.412,0.108 3.097,-0.972 0.685,-1.08 1.151,-1.764 -0.36,-1.728 -1.476,0.072 -8.531,0.072 -10.98,-0.216 -2.482,-0.288 -4.607,-1.548 -6.371,0.18 -1.764,1.692 -3.996,1.26 -4.645,3.78 -0.611,2.52 -0.863,4.788 -0.863,4.788 0,0 -0.576,2.772 -1.477,0.432 -0.936,-2.376 -1.332,-3.096 -2.123,-2.664 -0.793,0.468 -0.757,3.564 -2.053,2.521 -1.332,-1.008 -1.367,-1.368 -1.26,-2.664 0.107,-1.332 -1.008,-1.62 -1.116,-0.432 -0.108,1.224 -0.396,4.356 0.288,5.4 0,0 -1.943,0.396 -3.096,2.592 -1.152,2.16 -1.369,4.068 -0.972,6.804 0.396,2.7 1.259,6.192 1.296,8.208 0.071,2.016 -0.109,3.023 -0.109,3.023 0,0 3.421,-0.432 5.365,0.756 1.943,1.225 2.123,2.232 0.287,2.809 -1.836,0.577 -4.248,1.152 -5.256,0.107 -0.972,-1.008 -1.583,-1.871 -3.419,-1.403 -1.836,0.433 -2.304,1.403 -1.08,3.925 1.188,2.52 5.544,5.398 8.316,5.398 2.809,0 5.544,-1.619 6.695,-5.688 1.152,-4.068 1.908,-6.119 2.701,-7.02 0.791,-0.936 2.231,-0.576 2.735,1.404 0,0 0.828,5.111 -1.403,9.072 -2.232,3.959 -3.097,3.275 -4.357,3.203 -1.26,-0.072 -4.463,-0.287 -6.012,0.359 -1.547,0.613 -7.379,0.505 -9.072,-0.143 -1.728,-0.613 -4.032,-1.297 -5.688,-4.105 -1.656,-2.807 -2.808,-6.012 -0.108,-10.836 0,0 -1.728,-1.475 -1.656,-2.735 0.036,-1.26 -0.36,-1.548 -1.512,-1.692 -1.116,-0.107 -0.9,-2.627 -3.492,-2.34 -2.556,0.36 -6.695,0.396 -7.2,-0.828 -0.54,-1.26 -1.512,-1.836 -2.52,-1.367 -1.044,0.468 -3.384,0.396 -3.384,-0.793 0,-1.223 -0.504,-1.368 -1.62,-1.368 -1.08001,0 -1.87201,0.396 -3.672005,-1.548 -1.764,-1.944 -3.78,-3.492 -3.348,-5.004 0.396,-1.476 0.324,-2.916 -0.54,-4.788 -0.864,-1.908 -1.152,-2.304 -2.124,-1.044 -0.972,1.26 -2.34,1.872 -2.628,-0.108 -0.288,-2.016 -0.18,-2.412 0,-6.552 0.18,-4.104 0.792,-1.944 0.792,-3.996 0,-2.052 -0.036,-1.943 1.404,-2.808 1.404,-0.864 2.376,-3.384 2.808,-6.80399 0.396,-3.456004 1.584,-4.141004 2.088,-2.700004 0.54,1.44 1.404,2.844004 3.562995,0.612 2.19601,-2.232 9.07201,-6.444 12.96001,-7.776 3.888,-1.332 3.96,-0.504 2.521,1.332 -1.44,1.8 -3.888,0.792 -5.437,3.06 -1.548,2.305 -7.704,7.343994 -8.964,8.603994 -1.26001,1.26 -2.916005,3.096 -2.628005,4.32 0.288,1.188 1.655995,1.116 2.484005,1.944 0.792,0.792 0.504,2.376 -0.86401,3.384 0,0 0.612,1.98 -0.54,2.916 -1.115996,0.9 -0.216,1.656 0.972,2.268 1.22501,0.647 1.83601,1.836 2.95201,0.252 1.08,-1.62 2.521,-1.224 3.096,1.008 0.54,2.232 0.54,3.636 1.476,5.184 0.9,1.548 2.448,1.476 2.808,0.792 0.324,-0.684 0.685,-1.548 1.836,-0.756 1.152,0.792 0.756,1.368 -0.252,1.512 -0.972,0.108 -1.26,1.8 0.72,1.8 1.944,0 2.556,0.252 3.816,1.26 1.26,1.044 2.88,-0.54 4.752,1.728 1.908,2.304 2.484,4.465 2.988,7.416 0.504,2.988 3.852,5.04 3.96,2.484 0.108,-2.592 0.684,-4.789 -0.864,-4.608 -1.548,0.144 -0.864,-1.44 0.108,-1.513 0.972,-0.035 2.628,-1.835 0.756,-3.239 -1.908,-1.44 -2.628,-3.096 -2.628,-3.096 0,0 -0.684,-2.232 -3.348,-2.412 -2.628,-0.18 -1.548,-0.468 -3.816,-1.439 -2.304,-0.972 -5.04,-1.332 -6.444,-2.736 -1.368,-1.44 -2.952,-2.232 -0.144,-3.96 2.808,-1.728 3.42,-2.628 4.212,-0.684 0.828,1.944 1.98,3.204 5.112,3.78 3.168,0.576 5.616,2.124 5.796,3.528 0.18,1.44 1.296,2.592 1.368,0.252 0.072,-2.376 -0.864,-6.552 -2.448,-7.956 -1.62,-1.44 -5.112,-1.836 -8.496,-1.836 -3.384,0 -5.652,0.108 -5.652,0.108 0,0 -1.836,0.468 1.008,-1.944 2.88,-2.412 5.4,-5.292 8.244,-5.184 2.88,0.144 6.948,0 8.028,4.716 0,0 0.936,1.872 0.756,4.176 -0.18,2.304 0.612,1.512 2.737,1.512 2.123,0 6.73,-1.548 7.883,-1.044 1.153,0.504 1.369,-0.072 1.297,-1.439 -0.037,-1.368 1.728,-2.736 2.123,-4.86 0.396,-2.124 0.361,-2.34 -0.863,-2.34 -1.188,0 -2.34,-1.044 -2.629,-2.988 -0.287,-1.944 0.576,-2.124 -0.504,-4.53599 -1.08,-2.412004 -1.907,-4.355004 -2.483,-6.516004 -0.54,-2.196 -1.116,-3.492 -1.62,-4.248 -0.504,-0.756 -1.404,-2.016 -1.548,-0.216 -0.108,1.764 -2.52,2.376 -2.124,4.607 0.432,2.269 0.721,3.78 -0.396,4.896 -1.08,1.080004 -4.5,4.283994 -3.024,0.18 1.476,-4.14 0.864,-5.508 0.864,-6.948 0,-1.44 0.324,-2.34 1.656,-3.168 1.332,-0.792 3.708,-1.98 2.591,-3.636 -1.152,-1.692 -2.016,-2.232 -2.124,-4.5 z"
     id="path823"
     inkscape:connector-curvature="0"
     style="fill:#fadf3c" />
  <path
     d="m 167.82351,93.047636 c 0,0 2.736,0.215999 2.051,1.729 -0.646,1.548 -0.646,2.736 -1.799,2.087999 -1.117,-0.683999 -1.801,-2.555999 -1.801,0 0,2.52 -0.324,4.500005 -1.332,3.168005 -0.972,-1.332004 -1.439,-1.044004 -2.375,-0.900005 -0.937,0.108001 -0.937,-2.412 0.18,-2.087999 1.152,0.324 1.871,0.215999 1.871,-1.116 0,-1.332 -0.936,-3.276 -2.195,-2.484 -1.26,0.828 -2.844,0.864 -3.527,-0.648 -0.648,-1.548 -2.197,-2.52 -4.789,-2.808 -2.592,-0.252 -3.312,-0.072 -4.645,-1.44 -1.331,-1.404 -1.943,-1.548 -1.691,-2.412 0.289,-0.864 -0.972,-1.728 -1.836,-1.728 -0.9,0 -4.068,-1.872 -4.464,-3.204 -0.396,-1.332 -1.332,-2.376 -2.196,-1.944 -0.863,0.468 -2.016,0.612 -2.016,-0.504 0,-1.152 -0.288,-1.224 1.404,-1.08 1.728,0.145 3.275,0.252 4.14,0.072 0.864,-0.216 2.196,-0.54 2.052,1.008 -0.145,1.512 -0.468,3.528 3.672,5.977 4.104,2.483 5.184,2.808 8.1,3.744 2.952,0.934 3.96,2.986 11.196,4.57 z m 3.42,8.855994 c 0,0 -1.44,1.62 -1.188,-0.53999 0.252,-2.124005 -0.685,-4.536005 1.979,-3.096005 2.664,1.476 4.033,2.520005 5.148,4.067995 1.116,1.512 1.62,2.628 1.62,3.853 0,1.188 -0.252,1.548 1.044,2.304 1.26,0.792 1.872,2.052 0.504,2.052 -1.367,0 -2.412,0.54 -2.412,0.54 -2.232,0.936 -0.936,-0.612 -0.756,-1.224 0.18,-0.576 -0.863,-1.44 -1.656,-1.44 -0.756,0 -1.691,-1.368 -1.512,-2.844 0.145,-1.441 -0.972,-4.96899 -2.771,-3.673 z"
     id="path825"
     inkscape:connector-curvature="0"
     style="fill:#fadf3c" />
  <path
     d="m 93.483504,117.88763 c 0,0 -1.152,-1.296 -0.468,-1.548 0.72,-0.252 2.484,-1.836 2.988,-0.54 0.504,1.296 -1.476,2.376 -2.52,2.088 z m 3.816,-3.096 c 0,0 -1.331999,-0.108 -1.98,-0.792 -0.648,-0.684 -1.152,-0.396 0.036,-1.836 1.188,-1.44 1.512,-0.9 2.304,0.144 0.792,1.044 1.620001,3.276 -0.36,2.484 z"
     id="path827"
     inkscape:connector-curvature="0"
     style="fill:#2d509f" />
</svg>
